<?xml version="1.0" encoding="UTF-8" standalone="no"?>
<svg
   sodipodi:docname="icon.svg"
   inkscape:version="1.1 (c4e8f9ed74, 2021-05-24)"
   id="svg8"
   version="1.1"
   viewBox="0 0 512 512"
   height="512mm"
   width="512mm"
   inkscape:export-filename="/home/heinyan/Desktop/icon.png"
   inkscape:export-xdpi="6.3499999"
   inkscape:export-ydpi="6.3499999"
   xmlns:inkscape="http://www.inkscape.org/namespaces/inkscape"
   xmlns:sodipodi="http://sodipodi.sourceforge.net/DTD/sodipodi-0.dtd"
   xmlns="http://www.w3.org/2000/svg"
   xmlns:svg="http://www.w3.org/2000/svg"
   xmlns:rdf="http://www.w3.org/1999/02/22-rdf-syntax-ns#"
   xmlns:cc="http://creativecommons.org/ns#"
   xmlns:dc="http://purl.org/dc/elements/1.1/">
  <defs
     id="defs2">
    <inkscape:path-effect
       effect="spiro"
       id="path-effect1836"
       is_visible="true"
       lpeversion="1" />
    <inkscape:path-effect
       effect="spiro"
       id="path-effect1834"
       is_visible="true"
       lpeversion="1" />
    <inkscape:path-effect
       lpeversion="1"
       is_visible="true"
       id="path-effect1179"
       effect="spiro" />
    <inkscape:path-effect
       lpeversion="1"
       is_visible="true"
       id="path-effect1175"
       effect="spiro" />
    <filter
       height="1.2714295"
       y="-0.13571477"
       width="1.2714295"
       x="-0.13571477"
       id="filter70"
       style="color-interpolation-filters:sRGB"
       inkscape:collect="always">
      <feGaussianBlur
         id="feGaussianBlur72"
         stdDeviation="0.1458701"
         inkscape:collect="always" />
    </filter>
  </defs>
  <sodipodi:namedview
     inkscape:window-maximized="1"
     inkscape:window-y="26"
     inkscape:window-x="0"
     inkscape:window-height="1017"
     inkscape:window-width="1920"
     showgrid="false"
     inkscape:document-rotation="0"
     inkscape:current-layer="layer8"
     inkscape:document-units="mm"
     inkscape:cy="1018.5714"
     inkscape:cx="1644.2857"
     inkscape:zoom="0.35"
     inkscape:pageshadow="2"
     inkscape:pageopacity="0.0"
     borderopacity="1.0"
     bordercolor="#666666"
     pagecolor="#ffffff"
     id="base"
     inkscape:pagecheckerboard="0" />
  <metadata
     id="metadata5">
    <rdf:RDF>
      <cc:Work
         rdf:about="">
        <dc:format>image/svg+xml</dc:format>
        <dc:type
           rdf:resource="http://purl.org/dc/dcmitype/StillImage" />
        <dc:title />
      </cc:Work>
    </rdf:RDF>
  </metadata>
  <g
     style="display:inline"
     inkscape:label="background"
     id="layer3"
     inkscape:groupmode="layer"
     sodipodi:insensitive="true">
    <rect
       style="fill:#3a0000;fill-opacity:1;stroke:#2b0000;stroke-width:0.249884"
       id="rect4959"
       width="511.75009"
       height="511.75012"
       x="0.12494227"
       y="0.12494226" />
  </g>
  <g
     style="display:inline"
     id="layer1"
     inkscape:groupmode="layer"
     inkscape:label="icon">
    <g
       style="display:inline"
       inkscape:label="part1"
       id="layer5"
       inkscape:groupmode="layer" />
    <g
       style="display:inline;filter:url(#filter70)"
       inkscape:label="node"
       id="layer6"
       inkscape:groupmode="layer" />
    <g
       style="display:inline"
       inkscape:label="link"
       id="layer7"
       inkscape:groupmode="layer" />
    <g
       style="display:inline;mix-blend-mode:normal"
       inkscape:label="field"
       id="layer8"
       inkscape:groupmode="layer">
      <g
         id="g987"
         transform="translate(18.09016,17.58143)">
        <g
           transform="matrix(2.7426483,1.9808185,-1.9808185,2.7426483,578.78774,-1162.6779)"
           id="g1192"
           style="display:inline">
          <path
             style="display:inline;fill:none;stroke:#00c0a0;stroke-width:10.835;stroke-linecap:round;stroke-linejoin:round;stroke-miterlimit:4;stroke-dasharray:none;stroke-opacity:1"
             d="m 164.77454,354.38197 c -5.05872,-1.09006 -10.4236,-0.71895 -15.28405,1.05727 -6.25499,2.28585 -11.57755,6.86496 -15.10726,12.51218 -3.52971,5.64722 -5.30434,12.31483 -5.44587,18.9729 -0.23516,11.06262 3.87531,21.73022 8.45438,31.8034 4.70896,10.3589 9.98485,20.46005 15.7962,30.24316"
             id="path1177"
             inkscape:path-effect="#path-effect1179"
             inkscape:original-d="m 164.77454,354.38197 c -5.13729,0.39151 -10.18907,0.70511 -15.28405,1.05727 -5.09499,0.35216 -13.70178,20.99033 -20.55313,31.48508 -6.85134,10.49475 5.63656,21.20253 8.45438,31.8034 2.81784,10.60084 10.53111,20.16239 15.7962,30.24316" />
          <path
             style="display:inline;fill:none;stroke:#00c0a0;stroke-width:10;stroke-linecap:round;stroke-linejoin:round;stroke-miterlimit:4;stroke-dasharray:none;stroke-opacity:1"
             d="m 168.35517,396.70705 c 2.27981,-0.0861 4.51864,-1.01064 6.1949,-2.55825 1.67627,-1.5476 2.77628,-3.70563 3.04378,-5.97133 0.29561,-2.50384 -0.4275,-5.09662 -1.89925,-7.14371 -1.47174,-2.0471 -3.66566,-3.54471 -6.08216,-4.26384 -2.4165,-0.71913 -5.041,-0.67127 -7.45957,0.0409 -2.41856,0.71215 -4.62929,2.07602 -6.42283,3.84797 -2.01777,1.99348 -3.5134,4.50134 -4.36414,7.20719 -0.85073,2.70585 -1.06026,5.60438 -0.66559,8.41322 0.78936,5.61769 4.01372,10.77092 8.45811,14.29638 3.49568,2.77291 7.73292,4.59068 12.14327,5.26719 4.41034,0.67652 8.98368,0.21596 13.18931,-1.2745 8.41127,-2.98092 15.12984,-10.14898 17.94918,-18.61577 2.16257,-6.49446 2.1088,-13.70488 -0.15039,-20.16636 -2.25919,-6.46149 -6.70999,-12.13453 -12.44816,-15.86658"
             id="path1173"
             inkscape:path-effect="#path-effect1175"
             inkscape:original-d="m 168.35517,396.70705 c 3.15782,-2.92095 6.15939,-5.68613 9.23868,-8.52958 3.0793,-2.84346 -14.57561,-5.01219 -21.86381,-7.5187 -7.2882,-2.50647 2.28585,19.9448 3.42838,29.91679 1.14253,9.97201 28.85477,-9.74844 43.28176,-14.62308 14.42699,-4.8746 -8.39877,-24.02167 -12.59855,-36.03294" />
        </g>
        <circle
           transform="rotate(35.837885)"
           cy="59.982056"
           cx="197.43584"
           id="path1211"
           style="display:inline;fill:#00ff00;fill-opacity:0.941176;stroke:none;stroke-width:33.8316;stroke-linecap:round;stroke-linejoin:round;stroke-miterlimit:4;stroke-dasharray:none;stroke-opacity:0;paint-order:normal;filter:url(#filter70)"
           r="4.3635783" />
        <circle
           transform="rotate(35.837885)"
           style="display:inline;fill:#00ff00;fill-opacity:0.941176;stroke:none;stroke-width:33.8316;stroke-linecap:round;stroke-linejoin:round;stroke-miterlimit:4;stroke-dasharray:none;stroke-opacity:0;paint-order:normal;filter:url(#filter70)"
           id="path1211-6"
           cx="254.68219"
           cy="39.559002"
           r="4.3635783" />
        <a
           transform="matrix(2.7426483,1.9808185,-1.9808185,2.7426483,436.18806,-1229.342)"
           id="a1310"
           style="display:inline;fill:#00ff00;filter:url(#filter70)">
          <circle
             style="display:inline;fill:#00ff00;fill-opacity:0.941176;stroke:none;stroke-width:10;stroke-linecap:round;stroke-linejoin:round;stroke-miterlimit:4;stroke-dasharray:none;stroke-opacity:0;paint-order:normal"
             id="path1211-6-7"
             cx="173.07655"
             cy="407.09564"
             r="1.2897942" />
        </a>
        <circle
           transform="rotate(35.837885)"
           cy="107.96472"
           cx="270.81311"
           id="path1211-6-5"
           style="display:inline;fill:#00ff00;fill-opacity:0.941176;stroke:none;stroke-width:33.8316;stroke-linecap:round;stroke-linejoin:round;stroke-miterlimit:4;stroke-dasharray:none;stroke-opacity:0;paint-order:normal;filter:url(#filter70)"
           r="4.3635783" />
        <circle
           transform="rotate(35.837885)"
           cy="178.70523"
           cx="242.06541"
           id="path1211-6-3"
           style="display:inline;fill:#00ff00;fill-opacity:0.941176;stroke:none;stroke-width:33.8316;stroke-linecap:round;stroke-linejoin:round;stroke-miterlimit:4;stroke-dasharray:none;stroke-opacity:0;paint-order:normal;filter:url(#filter70)"
           r="4.3635783" />
        <circle
           transform="rotate(35.837885)"
           cy="153.0502"
           cx="294.9837"
           id="path1211-6-56"
           style="display:inline;fill:#00ff00;fill-opacity:0.941176;stroke:none;stroke-width:33.8316;stroke-linecap:round;stroke-linejoin:round;stroke-miterlimit:4;stroke-dasharray:none;stroke-opacity:0;paint-order:normal;filter:url(#filter70)"
           r="4.3635783" />
        <circle
           transform="rotate(35.837885)"
           cy="233.93655"
           cx="259.07767"
           id="path1211-6-2"
           style="display:inline;fill:#00ff00;fill-opacity:0.941176;stroke:none;stroke-width:33.8316;stroke-linecap:round;stroke-linejoin:round;stroke-miterlimit:4;stroke-dasharray:none;stroke-opacity:0;paint-order:normal;filter:url(#filter70)"
           r="4.3635783" />
        <circle
           transform="rotate(35.837885)"
           cy="201.86996"
           cx="327.83307"
           id="path1211-6-9"
           style="display:inline;fill:#00ff00;fill-opacity:0.941176;stroke:none;stroke-width:33.8316;stroke-linecap:round;stroke-linejoin:round;stroke-miterlimit:4;stroke-dasharray:none;stroke-opacity:0;paint-order:normal;filter:url(#filter70)"
           r="4.3635783" />
        <path
           id="path1281"
           d="M 124.96763,164.48346 104.41439,230.2731 72.378074,342.31845 148.02628,355.78985 183.08374,181.0015 Z"
           style="display:inline;fill:none;stroke:#ff0000;stroke-width:1.69127;stroke-linecap:butt;stroke-linejoin:miter;stroke-miterlimit:4;stroke-dasharray:none;stroke-dashoffset:0;stroke-opacity:1;paint-order:normal" />
        <path
           id="path1283"
           d="m 183.08374,181.0015 -78.79404,49.43197 43.73658,125.35638"
           style="display:inline;fill:none;stroke:#ff0000;stroke-width:1.69127;stroke-linecap:butt;stroke-linejoin:miter;stroke-miterlimit:4;stroke-dasharray:none;stroke-dashoffset:0;stroke-opacity:1;paint-order:normal" />
        <path
           id="path1285"
           d="M 104.2897,230.43347 91.464903,287.19582 72.378074,342.31845"
           style="display:inline;fill:none;stroke:#ff0000;stroke-width:1.69127;stroke-linecap:butt;stroke-linejoin:miter;stroke-miterlimit:4;stroke-dasharray:none;stroke-dashoffset:0;stroke-opacity:1;paint-order:normal" />
        <path
           id="path1287"
           d="M 148.02628,355.78985 91.464903,287.19582"
           style="display:inline;fill:none;stroke:#ff0000;stroke-width:1.69127;stroke-linecap:butt;stroke-linejoin:miter;stroke-miterlimit:4;stroke-dasharray:none;stroke-dashoffset:0;stroke-opacity:1;paint-order:normal" />
        <path
           id="path1399"
           d="m 183.08374,181.0015 -26.7036,65.47553 -52.09044,-16.04356 45.23326,66.347 z"
           style="display:inline;fill:none;stroke:#ff0000;stroke-width:1.69127;stroke-linecap:butt;stroke-linejoin:miter;stroke-miterlimit:4;stroke-dasharray:none;stroke-dashoffset:0;stroke-opacity:1;paint-order:normal" />
        <path
           id="path1401"
           d="m 149.52296,296.78047 6.85718,-50.30344"
           style="display:inline;fill:none;stroke:#ff0000;stroke-width:1.69127;stroke-linecap:butt;stroke-linejoin:miter;stroke-miterlimit:4;stroke-dasharray:none;stroke-dashoffset:0;stroke-opacity:1;paint-order:normal" />
        <path
           id="path1403"
           d="m 148.02628,355.78985 1.49668,-59.00938"
           style="display:inline;fill:none;stroke:#ff0000;stroke-width:1.69127;stroke-linecap:butt;stroke-linejoin:miter;stroke-miterlimit:4;stroke-dasharray:none;stroke-dashoffset:0;stroke-opacity:1;paint-order:normal" />
        <path
           id="path1557"
           d="m 105.6909,228.23674 c 0.0973,-0.38975 4.56096,-14.73388 9.91924,-31.87572 l 9.74237,-31.16707 28.13131,7.9972 c 15.47222,4.39849 28.12785,8.01823 28.12364,8.04388 -0.006,0.0354 -74.93564,47.02367 -75.88154,47.58474 -0.11658,0.0691 -0.13253,-0.19294 -0.035,-0.58303 z"
           style="fill:#00ff00;fill-opacity:0.25;stroke:#ff0000;stroke-width:0.22641;stroke-linecap:round;stroke-linejoin:round;stroke-miterlimit:4;stroke-dasharray:none;stroke-opacity:0;paint-order:normal" />
        <path
           id="path1559"
           d="m 106.22885,229.94983 c 1.90954,-1.32356 75.57733,-47.4334 75.5329,-47.27723 -0.0332,0.11533 -5.82098,14.33464 -12.86237,31.59826 -8.80633,21.59063 -12.89477,31.38167 -13.09777,31.3671 -0.37907,-0.0273 -49.55452,-15.18052 -49.76177,-15.33396 -0.0865,-0.0623 -6.2e-4,-0.22272 0.18901,-0.35415 z"
           style="fill:#00ff00;fill-opacity:0.25;stroke:#ff0000;stroke-width:0.22641;stroke-linecap:round;stroke-linejoin:round;stroke-miterlimit:4;stroke-dasharray:none;stroke-opacity:0;paint-order:normal" />
        <path
           id="path1561"
           d="m 127.47111,263.41128 c -11.85989,-17.3955 -21.52843,-31.67555 -21.4858,-31.73329 0.14156,-0.19181 49.63917,15.17021 49.66918,15.41525 0.0427,0.34744 -6.45146,47.92393 -6.54317,47.93609 -0.0423,0.006 -9.78034,-14.22255 -21.64021,-31.61805 z"
           style="fill:#00ff00;fill-opacity:0.25;stroke:#ff0000;stroke-width:0.22641;stroke-linecap:round;stroke-linejoin:round;stroke-miterlimit:4;stroke-dasharray:none;stroke-opacity:0;paint-order:normal" />
        <path
           id="path1563"
           d="m 154.13192,267.17769 2.76077,-20.36536 10.96053,-26.91257 c 6.02836,-14.80201 11.00792,-26.92032 11.06568,-26.92961 0.0577,-0.009 -6.06113,21.2567 -13.59776,47.25797 -7.53662,26.00125 -13.75853,47.28396 -13.8265,47.29495 -0.0677,0.0107 1.11886,-9.14452 2.63724,-20.3454 z"
           style="fill:#00ff00;fill-opacity:0.25;stroke:#ff0000;stroke-width:0.22641;stroke-linecap:round;stroke-linejoin:round;stroke-miterlimit:4;stroke-dasharray:none;stroke-opacity:0;paint-order:normal" />
        <path
           id="path1565"
           d="m 152.76852,278.31837 c 0.51107,-3.87434 1.67259,-12.54028 2.58108,-19.25749 l 1.65192,-12.21324 2.40085,-5.91264 c 9.65069,-23.76686 17.99517,-44.05278 18.19992,-44.245 0.24275,-0.22791 -2.6213,9.80465 -13.71996,48.05992 -8.98421,30.96709 -11.80785,40.57482 -11.93054,40.59462 -0.0621,0.0104 0.30566,-3.15182 0.81669,-7.02619 z"
           style="fill:#00ff00;fill-opacity:0.25;stroke:#ff0000;stroke-width:0.22641;stroke-linecap:round;stroke-linejoin:round;stroke-miterlimit:4;stroke-dasharray:none;stroke-opacity:0;paint-order:normal" />
        <path
           id="path1567"
           d="m 148.31197,293.72334 c -0.13562,-0.23697 -5.16186,-7.61118 -11.16953,-16.38708 -10.07736,-14.72073 -25.46428,-37.33124 -29.28756,-43.03703 -1.58176,-2.36061 -1.59778,-2.40022 -0.90122,-2.22728 2.14479,0.53174 42.47664,13.00763 46.86955,14.49822 l 1.71005,0.58025 -0.29505,2.33394 c -0.42666,3.37581 -3.05902,22.76531 -4.43473,32.66605 -0.64877,4.66914 -1.29516,9.32534 -1.43634,10.34698 -0.14122,1.02172 -0.28197,1.89252 -0.31275,1.93519 -0.0904,0.12507 -0.47645,-0.24359 -0.7427,-0.7091 z"
           style="fill:#00ff00;fill-opacity:0.25;stroke:#ff0000;stroke-width:0.22641;stroke-linecap:round;stroke-linejoin:round;stroke-miterlimit:4;stroke-dasharray:none;stroke-opacity:0;paint-order:normal" />
        <path
           id="path1569"
           d="m 106.63267,229.83813 c 1.06041,-0.78618 71.21125,-44.69938 74.2101,-46.45422 0.41057,-0.2402 0.7118,-0.38198 0.66936,-0.31488 -0.0421,0.0668 -2.67651,6.50899 -5.85364,14.31549 -15.96148,39.21885 -19.59986,47.95359 -20.00164,48.01841 -0.25444,0.041 -3.5861,-0.9705 -28.93828,-8.7863 -11.08214,-3.41654 -20.22922,-6.26951 -20.32685,-6.34002 -0.0993,-0.0717 0.007,-0.26471 0.24097,-0.43843 z"
           style="fill:#00ff00;fill-opacity:0.25;stroke:#ff0000;stroke-width:0.22641;stroke-linecap:round;stroke-linejoin:round;stroke-miterlimit:4;stroke-dasharray:none;stroke-opacity:0;paint-order:normal" />
        <path
           id="path1571"
           d="m 126.89161,293.5154 c -11.14765,-31.99469 -20.17576,-58.14306 -20.06251,-58.1075 0.14842,0.0465 30.05881,43.77619 41.6126,60.83846 0.51134,0.75508 0.50231,2.23081 -0.1713,28.03576 -0.39116,14.98138 -0.73778,27.33362 -0.77039,27.44952 -0.0322,0.11593 -0.12246,0.1534 -0.19987,0.0826 -0.0772,-0.0702 -9.26111,-26.30494 -20.40883,-58.29956 z"
           style="fill:#00ff00;fill-opacity:0.25;stroke:#ff0000;stroke-width:0.22641;stroke-linecap:round;stroke-linejoin:round;stroke-miterlimit:4;stroke-dasharray:none;stroke-opacity:0;paint-order:normal" />
        <path
           id="path1573"
           d="m 149.46051,322.24222 c 0.34628,-13.82226 0.76842,-25.65854 0.9381,-26.30284 1.02064,-3.87576 28.53836,-98.47183 28.67346,-98.56903 0.0909,-0.0652 -6.60771,33.64763 -14.88569,74.9177 -8.27797,41.27006 -15.11938,75.04751 -15.20313,75.061 -0.0837,0.0135 0.13102,-11.28456 0.47726,-25.10683 z"
           style="fill:#00ff00;fill-opacity:0.25;stroke:#ff0000;stroke-width:0.22641;stroke-linecap:round;stroke-linejoin:round;stroke-miterlimit:4;stroke-dasharray:none;stroke-opacity:0;paint-order:normal" />
        <path
           id="path1575"
           d="m 149.27426,335.91946 c 0.28665,-13.90109 0.45327,-20.05101 0.82003,-30.2718 0.31533,-8.78652 0.38279,-9.51779 1.12129,-12.15659 0.43213,-1.54422 3.52302,-12.2494 6.86867,-23.78935 12.38631,-42.72349 19.64856,-67.49357 19.8255,-67.62082 0.10012,-0.072 -0.28222,2.21863 -0.84961,5.09032 -5.62066,28.44792 -25.26031,126.26558 -27.02823,134.61744 -0.37666,1.77921 -0.74359,3.24451 -0.81552,3.25607 -0.0721,0.012 -0.0458,-4.09479 0.0579,-9.12527 z"
           style="fill:#00ff00;fill-opacity:0.25;stroke:#ff0000;stroke-width:0.22641;stroke-linecap:round;stroke-linejoin:round;stroke-miterlimit:4;stroke-dasharray:none;stroke-opacity:0;paint-order:normal" />
        <path
           id="path1577"
           d="m 146.4639,349.17667 c -0.29212,-0.86962 -3.72685,-10.70813 -7.63277,-21.86329 -7.39266,-21.11373 -26.13079,-75.00711 -29.51599,-84.89234 -1.0718,-3.12972 -1.88904,-5.70007 -1.81611,-5.7118 0.13869,-0.0224 3.97662,5.54172 20.43718,29.62935 22.11619,32.36362 20.43598,29.81362 20.61958,31.29418 0.1852,1.4938 0.0753,8.66507 -0.42229,27.55153 -0.48682,18.47932 -0.70651,25.55453 -0.79727,25.68021 -0.16212,0.22451 -0.35587,-0.14939 -0.87233,-1.68784 z"
           style="fill:#00ff00;fill-opacity:0.25;stroke:#ff0000;stroke-width:0.22641;stroke-linecap:round;stroke-linejoin:round;stroke-miterlimit:4;stroke-dasharray:none;stroke-opacity:0;paint-order:normal" />
        <path
           id="path1579"
           d="m 138.95733,279.84251 c -10.90248,-15.99772 -31.23186,-45.90297 -31.87406,-46.88795 -0.23642,-0.36274 -0.39603,-0.70647 -0.35446,-0.76402 0.0414,-0.0573 3.3377,0.89487 7.3248,2.11644 13.64109,4.17931 41.00338,12.71322 41.18639,12.84541 0.10054,0.0727 -0.19232,2.95731 -0.65086,6.41047 -1.55643,11.72174 -5.38933,39.55025 -5.57417,40.47091 -0.0201,0.10051 -0.144,0.0996 -0.27511,-0.002 -0.12907,-0.10433 -4.5333,-6.48668 -9.78253,-14.18923 z"
           style="fill:#00ff00;fill-opacity:0.25;stroke:#ff0000;stroke-width:0.22641;stroke-linecap:round;stroke-linejoin:round;stroke-miterlimit:4;stroke-dasharray:none;stroke-opacity:0;paint-order:normal" />
        <path
           id="path1581"
           d="m 152.3906,282.18983 c 0.0586,-0.55795 1.13762,-8.71557 2.398,-18.12818 l 2.29164,-17.11388 4.64036,-11.42741 c 9.3805,-23.10052 14.99923,-36.69061 15.1814,-36.72017 0.29445,-0.0475 -24.10013,84.03897 -24.45296,84.28755 -0.0908,0.064 -0.11713,-0.34014 -0.0587,-0.89802 z"
           style="fill:#00ff00;fill-opacity:0.25;stroke:#ff0000;stroke-width:0.22641;stroke-linecap:round;stroke-linejoin:round;stroke-miterlimit:4;stroke-dasharray:none;stroke-opacity:0;paint-order:normal" />
        <path
           id="path1583"
           d="m 106.6196,230.02521 c 0.15145,-0.20971 21.33129,-13.52181 52.23023,-32.82818 18.944,-11.83662 22.29549,-13.90201 22.31926,-13.75457 0.0457,0.28338 -22.71665,55.82761 -24.41067,59.5664 -1.10849,2.44667 -0.9814,2.37153 -3.00994,1.77886 -6.45835,-1.88709 -46.78043,-14.37369 -47.05426,-14.57145 -0.0769,-0.0555 -0.11041,-0.14155 -0.0743,-0.19119 z"
           style="fill:#00ff00;fill-opacity:0.25;stroke:#ff0000;stroke-width:0.22641;stroke-linecap:round;stroke-linejoin:round;stroke-miterlimit:4;stroke-dasharray:none;stroke-opacity:0;paint-order:normal" />
        <path
           id="path1585"
           d="m 119.26202,320.04675 c -14.70741,-17.85907 -26.832699,-32.6123 -26.945071,-32.78498 -0.219175,-0.33661 11.815511,-54.05733 12.121171,-54.10663 0.13926,-0.0223 41.59008,118.28279 41.82395,119.37039 0.0384,0.17851 0.002,0.22921 -0.0993,0.13743 -0.0878,-0.08 -12.19335,-14.7572 -26.90075,-32.61626 z"
           style="fill:#00ff00;fill-opacity:0.25;stroke:#ff0000;stroke-width:0.22641;stroke-linecap:round;stroke-linejoin:round;stroke-miterlimit:4;stroke-dasharray:none;stroke-opacity:0;paint-order:normal" />
        <path
           id="path1587"
           d="m 88.796637,286.99293 c 4.91013,-17.1715 8.986349,-31.23036 9.058288,-31.24199 0.07151,-0.0112 -1.458078,7.01565 -3.400112,15.6161 l -3.530848,15.63721 -5.361133,15.48516 c -2.948589,8.51677 -5.435929,15.53893 -5.527386,15.60472 -0.0915,0.0658 3.851069,-13.92975 8.761191,-31.1012 z"
           style="fill:#00ff00;fill-opacity:0.25;stroke:#ff0000;stroke-width:0.22641;stroke-linecap:round;stroke-linejoin:round;stroke-miterlimit:4;stroke-dasharray:none;stroke-opacity:0;paint-order:normal" />
        <path
           id="path1589"
           d="m 82.361945,315.22995 c 5.062032,-14.6126 9.27736,-26.58029 9.367366,-26.59479 0.179185,-0.0289 54.488629,65.73282 54.563059,66.06879 0.0356,0.16031 -71.300993,-12.39296 -72.786125,-12.80837 -0.281761,-0.0787 1.403525,-5.15335 8.8557,-26.66563 z"
           style="fill:#00ff00;fill-opacity:0.25;stroke:#ff0000;stroke-width:0.22641;stroke-linecap:round;stroke-linejoin:round;stroke-miterlimit:4;stroke-dasharray:none;stroke-opacity:0;paint-order:normal" />
        <path
           id="path1591"
           d="m 84.371609,302.9523 c 6.785804,-23.85207 12.127864,-42.31364 12.274474,-42.4191 0.08603,-0.062 -1.194817,5.88733 -2.846376,13.22052 l -3.002788,13.33299 -4.534891,13.04611 c -2.494238,7.17541 -4.608701,13.09583 -4.698818,13.15649 -0.09012,0.0606 1.17364,-4.59096 2.808396,-10.33701 z"
           style="fill:#00ff00;fill-opacity:0.25;stroke:#ff0000;stroke-width:0.22641;stroke-linecap:round;stroke-linejoin:round;stroke-miterlimit:4;stroke-dasharray:none;stroke-opacity:0;paint-order:normal" />
        <path
           id="path1593"
           d="m 73.758003,341.02149 c 0.443405,-1.89627 14.538454,-42.82075 17.414466,-50.56226 l 0.592368,-1.59466 0.412322,0.46661 c 1.93799,2.19301 36.923951,44.49375 49.300061,59.60729 2.32246,2.8363 4.24436,5.26208 4.27088,5.39064 0.0266,0.1285 -2.65845,-0.23672 -5.96665,-0.81172 -24.79996,-4.3107 -59.55962,-10.45017 -63.936094,-11.29277 l -2.266676,-0.43634 z"
           style="fill:#00ff00;fill-opacity:0.25;stroke:#ff0000;stroke-width:0.22641;stroke-linecap:round;stroke-linejoin:round;stroke-miterlimit:4;stroke-dasharray:none;stroke-opacity:0;paint-order:normal" />
        <path
           id="path1595"
           d="m 130.7877,333.8877 c -7.9083,-9.60931 -19.7675,-24.02803 -26.35383,-32.04151 l -11.975105,-14.57 0.255738,-1.45148 c 0.913294,-5.18334 11.322857,-51.45193 11.690187,-51.96054 0.0665,-0.092 0.64988,1.31537 1.29618,3.12782 6.64569,18.63444 39.06463,111.27752 39.93717,114.12774 0.20631,0.67416 0.18909,0.75224 -0.11449,0.51684 -0.19634,-0.15285 -6.82787,-8.13945 -14.73613,-17.74886 z"
           style="fill:#00ff00;fill-opacity:0.25;stroke:#ff0000;stroke-width:0.22641;stroke-linecap:round;stroke-linejoin:round;stroke-miterlimit:4;stroke-dasharray:none;stroke-opacity:0;paint-order:normal" />
      </g>
    </g>
  </g>
</svg>
